<mxfile host="app.diagrams.net" modified="2022-08-03T08:35:27.901Z" agent="5.0 (Windows NT 10.0; Win64; x64) AppleWebKit/537.36 (KHTML, like Gecko) Chrome/103.0.5060.134 Safari/537.36" etag="6BBWUK0HQyaL0FRHBEu5" version="20.2.2" type="github">
  <diagram id="t2kw1TbOJkhazKl6BMgG" name="Sivu-1">
    <mxGraphModel dx="1738" dy="1040" grid="1" gridSize="10" guides="1" tooltips="1" connect="1" arrows="1" fold="1" page="1" pageScale="1" pageWidth="827" pageHeight="1169" math="0" shadow="0">
      <root>
        <mxCell id="0" />
        <mxCell id="1" parent="0" />
        <mxCell id="CctYS4EorTJOujkTrtzZ-2" value="opiskelija" style="rounded=0;whiteSpace=wrap;html=1;" vertex="1" parent="1">
          <mxGeometry x="30" y="70" width="180" height="70" as="geometry" />
        </mxCell>
        <mxCell id="CctYS4EorTJOujkTrtzZ-3" value="opettaja" style="rounded=0;whiteSpace=wrap;html=1;" vertex="1" parent="1">
          <mxGeometry x="310" y="180" width="180" height="70" as="geometry" />
        </mxCell>
        <mxCell id="CctYS4EorTJOujkTrtzZ-4" value="kurssisuoritus" style="rounded=0;whiteSpace=wrap;html=1;" vertex="1" parent="1">
          <mxGeometry x="610" y="70" width="180" height="70" as="geometry" />
        </mxCell>
        <mxCell id="CctYS4EorTJOujkTrtzZ-171" style="edgeStyle=none;rounded=0;orthogonalLoop=1;jettySize=auto;html=1;entryX=0;entryY=0.5;entryDx=0;entryDy=0;" edge="1" parent="1" source="CctYS4EorTJOujkTrtzZ-5" target="CctYS4EorTJOujkTrtzZ-158">
          <mxGeometry relative="1" as="geometry" />
        </mxCell>
        <mxCell id="CctYS4EorTJOujkTrtzZ-5" value="" style="shape=table;html=1;whiteSpace=wrap;startSize=0;container=1;collapsible=0;childLayout=tableLayout;" vertex="1" parent="1">
          <mxGeometry x="30" y="140" width="180" height="170" as="geometry" />
        </mxCell>
        <mxCell id="CctYS4EorTJOujkTrtzZ-6" value="" style="shape=tableRow;horizontal=0;startSize=0;swimlaneHead=0;swimlaneBody=0;top=0;left=0;bottom=0;right=0;collapsible=0;dropTarget=0;fillColor=none;points=[[0,0.5],[1,0.5]];portConstraint=eastwest;" vertex="1" parent="CctYS4EorTJOujkTrtzZ-5">
          <mxGeometry width="180" height="50" as="geometry" />
        </mxCell>
        <mxCell id="CctYS4EorTJOujkTrtzZ-7" value="id" style="shape=partialRectangle;html=1;whiteSpace=wrap;connectable=0;fillColor=none;top=0;left=0;bottom=0;right=0;overflow=hidden;" vertex="1" parent="CctYS4EorTJOujkTrtzZ-6">
          <mxGeometry width="60" height="50" as="geometry">
            <mxRectangle width="60" height="50" as="alternateBounds" />
          </mxGeometry>
        </mxCell>
        <mxCell id="CctYS4EorTJOujkTrtzZ-8" value="nimi" style="shape=partialRectangle;html=1;whiteSpace=wrap;connectable=0;fillColor=none;top=0;left=0;bottom=0;right=0;overflow=hidden;" vertex="1" parent="CctYS4EorTJOujkTrtzZ-6">
          <mxGeometry x="60" width="60" height="50" as="geometry">
            <mxRectangle width="60" height="50" as="alternateBounds" />
          </mxGeometry>
        </mxCell>
        <mxCell id="CctYS4EorTJOujkTrtzZ-9" value="syntymä vuosi" style="shape=partialRectangle;html=1;whiteSpace=wrap;connectable=0;fillColor=none;top=0;left=0;bottom=0;right=0;overflow=hidden;" vertex="1" parent="CctYS4EorTJOujkTrtzZ-6">
          <mxGeometry x="120" width="60" height="50" as="geometry">
            <mxRectangle width="60" height="50" as="alternateBounds" />
          </mxGeometry>
        </mxCell>
        <mxCell id="CctYS4EorTJOujkTrtzZ-10" value="" style="shape=tableRow;horizontal=0;startSize=0;swimlaneHead=0;swimlaneBody=0;top=0;left=0;bottom=0;right=0;collapsible=0;dropTarget=0;fillColor=none;points=[[0,0.5],[1,0.5]];portConstraint=eastwest;" vertex="1" parent="CctYS4EorTJOujkTrtzZ-5">
          <mxGeometry y="50" width="180" height="40" as="geometry" />
        </mxCell>
        <mxCell id="CctYS4EorTJOujkTrtzZ-11" value="1" style="shape=partialRectangle;html=1;whiteSpace=wrap;connectable=0;fillColor=none;top=0;left=0;bottom=0;right=0;overflow=hidden;" vertex="1" parent="CctYS4EorTJOujkTrtzZ-10">
          <mxGeometry width="60" height="40" as="geometry">
            <mxRectangle width="60" height="40" as="alternateBounds" />
          </mxGeometry>
        </mxCell>
        <mxCell id="CctYS4EorTJOujkTrtzZ-12" value="matti" style="shape=partialRectangle;html=1;whiteSpace=wrap;connectable=0;fillColor=none;top=0;left=0;bottom=0;right=0;overflow=hidden;" vertex="1" parent="CctYS4EorTJOujkTrtzZ-10">
          <mxGeometry x="60" width="60" height="40" as="geometry">
            <mxRectangle width="60" height="40" as="alternateBounds" />
          </mxGeometry>
        </mxCell>
        <mxCell id="CctYS4EorTJOujkTrtzZ-13" value="1990" style="shape=partialRectangle;html=1;whiteSpace=wrap;connectable=0;fillColor=none;top=0;left=0;bottom=0;right=0;overflow=hidden;" vertex="1" parent="CctYS4EorTJOujkTrtzZ-10">
          <mxGeometry x="120" width="60" height="40" as="geometry">
            <mxRectangle width="60" height="40" as="alternateBounds" />
          </mxGeometry>
        </mxCell>
        <mxCell id="CctYS4EorTJOujkTrtzZ-19" value="" style="shape=tableRow;horizontal=0;startSize=0;swimlaneHead=0;swimlaneBody=0;top=0;left=0;bottom=0;right=0;collapsible=0;dropTarget=0;fillColor=none;points=[[0,0.5],[1,0.5]];portConstraint=eastwest;" vertex="1" parent="CctYS4EorTJOujkTrtzZ-5">
          <mxGeometry y="90" width="180" height="40" as="geometry" />
        </mxCell>
        <mxCell id="CctYS4EorTJOujkTrtzZ-20" value="2" style="shape=partialRectangle;html=1;whiteSpace=wrap;connectable=0;fillColor=none;top=0;left=0;bottom=0;right=0;overflow=hidden;" vertex="1" parent="CctYS4EorTJOujkTrtzZ-19">
          <mxGeometry width="60" height="40" as="geometry">
            <mxRectangle width="60" height="40" as="alternateBounds" />
          </mxGeometry>
        </mxCell>
        <mxCell id="CctYS4EorTJOujkTrtzZ-21" value="pekka" style="shape=partialRectangle;html=1;whiteSpace=wrap;connectable=0;fillColor=none;top=0;left=0;bottom=0;right=0;overflow=hidden;" vertex="1" parent="CctYS4EorTJOujkTrtzZ-19">
          <mxGeometry x="60" width="60" height="40" as="geometry">
            <mxRectangle width="60" height="40" as="alternateBounds" />
          </mxGeometry>
        </mxCell>
        <mxCell id="CctYS4EorTJOujkTrtzZ-22" value="1997" style="shape=partialRectangle;html=1;whiteSpace=wrap;connectable=0;fillColor=none;top=0;left=0;bottom=0;right=0;overflow=hidden;" vertex="1" parent="CctYS4EorTJOujkTrtzZ-19">
          <mxGeometry x="120" width="60" height="40" as="geometry">
            <mxRectangle width="60" height="40" as="alternateBounds" />
          </mxGeometry>
        </mxCell>
        <mxCell id="CctYS4EorTJOujkTrtzZ-14" value="" style="shape=tableRow;horizontal=0;startSize=0;swimlaneHead=0;swimlaneBody=0;top=0;left=0;bottom=0;right=0;collapsible=0;dropTarget=0;fillColor=none;points=[[0,0.5],[1,0.5]];portConstraint=eastwest;" vertex="1" parent="CctYS4EorTJOujkTrtzZ-5">
          <mxGeometry y="130" width="180" height="40" as="geometry" />
        </mxCell>
        <mxCell id="CctYS4EorTJOujkTrtzZ-15" value="3" style="shape=partialRectangle;html=1;whiteSpace=wrap;connectable=0;fillColor=none;top=0;left=0;bottom=0;right=0;overflow=hidden;" vertex="1" parent="CctYS4EorTJOujkTrtzZ-14">
          <mxGeometry width="60" height="40" as="geometry">
            <mxRectangle width="60" height="40" as="alternateBounds" />
          </mxGeometry>
        </mxCell>
        <mxCell id="CctYS4EorTJOujkTrtzZ-16" value="teppo" style="shape=partialRectangle;html=1;whiteSpace=wrap;connectable=0;fillColor=none;top=0;left=0;bottom=0;right=0;overflow=hidden;" vertex="1" parent="CctYS4EorTJOujkTrtzZ-14">
          <mxGeometry x="60" width="60" height="40" as="geometry">
            <mxRectangle width="60" height="40" as="alternateBounds" />
          </mxGeometry>
        </mxCell>
        <mxCell id="CctYS4EorTJOujkTrtzZ-17" value="1967" style="shape=partialRectangle;html=1;whiteSpace=wrap;connectable=0;fillColor=none;top=0;left=0;bottom=0;right=0;overflow=hidden;pointerEvents=1;" vertex="1" parent="CctYS4EorTJOujkTrtzZ-14">
          <mxGeometry x="120" width="60" height="40" as="geometry">
            <mxRectangle width="60" height="40" as="alternateBounds" />
          </mxGeometry>
        </mxCell>
        <mxCell id="CctYS4EorTJOujkTrtzZ-63" value="" style="shape=table;html=1;whiteSpace=wrap;startSize=0;container=1;collapsible=0;childLayout=tableLayout;" vertex="1" parent="1">
          <mxGeometry x="610" y="140" width="180" height="160" as="geometry" />
        </mxCell>
        <mxCell id="CctYS4EorTJOujkTrtzZ-64" value="" style="shape=tableRow;horizontal=0;startSize=0;swimlaneHead=0;swimlaneBody=0;top=0;left=0;bottom=0;right=0;collapsible=0;dropTarget=0;fillColor=none;points=[[0,0.5],[1,0.5]];portConstraint=eastwest;" vertex="1" parent="CctYS4EorTJOujkTrtzZ-63">
          <mxGeometry width="180" height="40" as="geometry" />
        </mxCell>
        <mxCell id="CctYS4EorTJOujkTrtzZ-65" value="päivämäärä" style="shape=partialRectangle;html=1;whiteSpace=wrap;connectable=0;fillColor=none;top=0;left=0;bottom=0;right=0;overflow=hidden;" vertex="1" parent="CctYS4EorTJOujkTrtzZ-64">
          <mxGeometry width="60" height="40" as="geometry">
            <mxRectangle width="60" height="40" as="alternateBounds" />
          </mxGeometry>
        </mxCell>
        <mxCell id="CctYS4EorTJOujkTrtzZ-66" value="kurssi" style="shape=partialRectangle;html=1;whiteSpace=wrap;connectable=0;fillColor=none;top=0;left=0;bottom=0;right=0;overflow=hidden;" vertex="1" parent="CctYS4EorTJOujkTrtzZ-64">
          <mxGeometry x="60" width="60" height="40" as="geometry">
            <mxRectangle width="60" height="40" as="alternateBounds" />
          </mxGeometry>
        </mxCell>
        <mxCell id="CctYS4EorTJOujkTrtzZ-67" value="opiskelia" style="shape=partialRectangle;html=1;whiteSpace=wrap;connectable=0;fillColor=none;top=0;left=0;bottom=0;right=0;overflow=hidden;" vertex="1" parent="CctYS4EorTJOujkTrtzZ-64">
          <mxGeometry x="120" width="60" height="40" as="geometry">
            <mxRectangle width="60" height="40" as="alternateBounds" />
          </mxGeometry>
        </mxCell>
        <mxCell id="CctYS4EorTJOujkTrtzZ-68" value="" style="shape=tableRow;horizontal=0;startSize=0;swimlaneHead=0;swimlaneBody=0;top=0;left=0;bottom=0;right=0;collapsible=0;dropTarget=0;fillColor=none;points=[[0,0.5],[1,0.5]];portConstraint=eastwest;" vertex="1" parent="CctYS4EorTJOujkTrtzZ-63">
          <mxGeometry y="40" width="180" height="40" as="geometry" />
        </mxCell>
        <mxCell id="CctYS4EorTJOujkTrtzZ-69" value="20.3" style="shape=partialRectangle;html=1;whiteSpace=wrap;connectable=0;fillColor=none;top=0;left=0;bottom=0;right=0;overflow=hidden;" vertex="1" parent="CctYS4EorTJOujkTrtzZ-68">
          <mxGeometry width="60" height="40" as="geometry">
            <mxRectangle width="60" height="40" as="alternateBounds" />
          </mxGeometry>
        </mxCell>
        <mxCell id="CctYS4EorTJOujkTrtzZ-70" value="matti" style="shape=partialRectangle;html=1;whiteSpace=wrap;connectable=0;fillColor=none;top=0;left=0;bottom=0;right=0;overflow=hidden;" vertex="1" parent="CctYS4EorTJOujkTrtzZ-68">
          <mxGeometry x="60" width="60" height="40" as="geometry">
            <mxRectangle width="60" height="40" as="alternateBounds" />
          </mxGeometry>
        </mxCell>
        <mxCell id="CctYS4EorTJOujkTrtzZ-71" value="1" style="shape=partialRectangle;html=1;whiteSpace=wrap;connectable=0;fillColor=none;top=0;left=0;bottom=0;right=0;overflow=hidden;" vertex="1" parent="CctYS4EorTJOujkTrtzZ-68">
          <mxGeometry x="120" width="60" height="40" as="geometry">
            <mxRectangle width="60" height="40" as="alternateBounds" />
          </mxGeometry>
        </mxCell>
        <mxCell id="CctYS4EorTJOujkTrtzZ-72" value="" style="shape=tableRow;horizontal=0;startSize=0;swimlaneHead=0;swimlaneBody=0;top=0;left=0;bottom=0;right=0;collapsible=0;dropTarget=0;fillColor=none;points=[[0,0.5],[1,0.5]];portConstraint=eastwest;" vertex="1" parent="CctYS4EorTJOujkTrtzZ-63">
          <mxGeometry y="80" width="180" height="40" as="geometry" />
        </mxCell>
        <mxCell id="CctYS4EorTJOujkTrtzZ-73" value="2" style="shape=partialRectangle;html=1;whiteSpace=wrap;connectable=0;fillColor=none;top=0;left=0;bottom=0;right=0;overflow=hidden;" vertex="1" parent="CctYS4EorTJOujkTrtzZ-72">
          <mxGeometry width="60" height="40" as="geometry">
            <mxRectangle width="60" height="40" as="alternateBounds" />
          </mxGeometry>
        </mxCell>
        <mxCell id="CctYS4EorTJOujkTrtzZ-74" value="pekka" style="shape=partialRectangle;html=1;whiteSpace=wrap;connectable=0;fillColor=none;top=0;left=0;bottom=0;right=0;overflow=hidden;" vertex="1" parent="CctYS4EorTJOujkTrtzZ-72">
          <mxGeometry x="60" width="60" height="40" as="geometry">
            <mxRectangle width="60" height="40" as="alternateBounds" />
          </mxGeometry>
        </mxCell>
        <mxCell id="CctYS4EorTJOujkTrtzZ-75" value="2" style="shape=partialRectangle;html=1;whiteSpace=wrap;connectable=0;fillColor=none;top=0;left=0;bottom=0;right=0;overflow=hidden;" vertex="1" parent="CctYS4EorTJOujkTrtzZ-72">
          <mxGeometry x="120" width="60" height="40" as="geometry">
            <mxRectangle width="60" height="40" as="alternateBounds" />
          </mxGeometry>
        </mxCell>
        <mxCell id="CctYS4EorTJOujkTrtzZ-76" value="" style="shape=tableRow;horizontal=0;startSize=0;swimlaneHead=0;swimlaneBody=0;top=0;left=0;bottom=0;right=0;collapsible=0;dropTarget=0;fillColor=none;points=[[0,0.5],[1,0.5]];portConstraint=eastwest;" vertex="1" parent="CctYS4EorTJOujkTrtzZ-63">
          <mxGeometry y="120" width="180" height="40" as="geometry" />
        </mxCell>
        <mxCell id="CctYS4EorTJOujkTrtzZ-77" value="3" style="shape=partialRectangle;html=1;whiteSpace=wrap;connectable=0;fillColor=none;top=0;left=0;bottom=0;right=0;overflow=hidden;" vertex="1" parent="CctYS4EorTJOujkTrtzZ-76">
          <mxGeometry width="60" height="40" as="geometry">
            <mxRectangle width="60" height="40" as="alternateBounds" />
          </mxGeometry>
        </mxCell>
        <mxCell id="CctYS4EorTJOujkTrtzZ-78" value="teppo" style="shape=partialRectangle;html=1;whiteSpace=wrap;connectable=0;fillColor=none;top=0;left=0;bottom=0;right=0;overflow=hidden;" vertex="1" parent="CctYS4EorTJOujkTrtzZ-76">
          <mxGeometry x="60" width="60" height="40" as="geometry">
            <mxRectangle width="60" height="40" as="alternateBounds" />
          </mxGeometry>
        </mxCell>
        <mxCell id="CctYS4EorTJOujkTrtzZ-79" value="3" style="shape=partialRectangle;html=1;whiteSpace=wrap;connectable=0;fillColor=none;top=0;left=0;bottom=0;right=0;overflow=hidden;pointerEvents=1;" vertex="1" parent="CctYS4EorTJOujkTrtzZ-76">
          <mxGeometry x="120" width="60" height="40" as="geometry">
            <mxRectangle width="60" height="40" as="alternateBounds" />
          </mxGeometry>
        </mxCell>
        <mxCell id="CctYS4EorTJOujkTrtzZ-83" value="" style="endArrow=none;html=1;rounded=0;entryX=1.015;entryY=1.1;entryDx=0;entryDy=0;entryPerimeter=0;exitX=0;exitY=0.5;exitDx=0;exitDy=0;" edge="1" parent="1" target="CctYS4EorTJOujkTrtzZ-10">
          <mxGeometry width="50" height="50" relative="1" as="geometry">
            <mxPoint x="310" y="310" as="sourcePoint" />
            <mxPoint x="430" y="260" as="targetPoint" />
            <Array as="points" />
          </mxGeometry>
        </mxCell>
        <mxCell id="CctYS4EorTJOujkTrtzZ-97" value="" style="endArrow=none;html=1;rounded=0;entryX=-0.013;entryY=1.033;entryDx=0;entryDy=0;entryPerimeter=0;exitX=1;exitY=0.5;exitDx=0;exitDy=0;" edge="1" parent="1" target="CctYS4EorTJOujkTrtzZ-68">
          <mxGeometry width="50" height="50" relative="1" as="geometry">
            <mxPoint x="490" y="310" as="sourcePoint" />
            <mxPoint x="560" y="210" as="targetPoint" />
          </mxGeometry>
        </mxCell>
        <mxCell id="CctYS4EorTJOujkTrtzZ-111" value="" style="shape=table;html=1;whiteSpace=wrap;startSize=0;container=1;collapsible=0;childLayout=tableLayout;" vertex="1" parent="1">
          <mxGeometry x="420" y="620" width="226" height="257" as="geometry" />
        </mxCell>
        <mxCell id="CctYS4EorTJOujkTrtzZ-112" value="" style="shape=tableRow;horizontal=0;startSize=0;swimlaneHead=0;swimlaneBody=0;top=0;left=0;bottom=0;right=0;collapsible=0;dropTarget=0;fillColor=none;points=[[0,0.5],[1,0.5]];portConstraint=eastwest;" vertex="1" parent="CctYS4EorTJOujkTrtzZ-111">
          <mxGeometry width="226" height="63" as="geometry" />
        </mxCell>
        <mxCell id="CctYS4EorTJOujkTrtzZ-113" value="" style="shape=partialRectangle;html=1;whiteSpace=wrap;connectable=0;fillColor=none;top=0;left=0;bottom=0;right=0;overflow=hidden;" vertex="1" parent="CctYS4EorTJOujkTrtzZ-112">
          <mxGeometry width="75" height="63" as="geometry">
            <mxRectangle width="75" height="63" as="alternateBounds" />
          </mxGeometry>
        </mxCell>
        <mxCell id="CctYS4EorTJOujkTrtzZ-114" value="" style="shape=partialRectangle;html=1;whiteSpace=wrap;connectable=0;fillColor=none;top=0;left=0;bottom=0;right=0;overflow=hidden;" vertex="1" parent="CctYS4EorTJOujkTrtzZ-112">
          <mxGeometry x="75" width="76" height="63" as="geometry">
            <mxRectangle width="76" height="63" as="alternateBounds" />
          </mxGeometry>
        </mxCell>
        <mxCell id="CctYS4EorTJOujkTrtzZ-115" value="" style="shape=partialRectangle;html=1;whiteSpace=wrap;connectable=0;fillColor=none;top=0;left=0;bottom=0;right=0;overflow=hidden;" vertex="1" parent="CctYS4EorTJOujkTrtzZ-112">
          <mxGeometry x="151" width="75" height="63" as="geometry">
            <mxRectangle width="75" height="63" as="alternateBounds" />
          </mxGeometry>
        </mxCell>
        <mxCell id="CctYS4EorTJOujkTrtzZ-116" value="" style="shape=tableRow;horizontal=0;startSize=0;swimlaneHead=0;swimlaneBody=0;top=0;left=0;bottom=0;right=0;collapsible=0;dropTarget=0;fillColor=none;points=[[0,0.5],[1,0.5]];portConstraint=eastwest;" vertex="1" parent="CctYS4EorTJOujkTrtzZ-111">
          <mxGeometry y="63" width="226" height="67" as="geometry" />
        </mxCell>
        <mxCell id="CctYS4EorTJOujkTrtzZ-117" value="" style="shape=partialRectangle;html=1;whiteSpace=wrap;connectable=0;fillColor=none;top=0;left=0;bottom=0;right=0;overflow=hidden;" vertex="1" parent="CctYS4EorTJOujkTrtzZ-116">
          <mxGeometry width="75" height="67" as="geometry">
            <mxRectangle width="75" height="67" as="alternateBounds" />
          </mxGeometry>
        </mxCell>
        <mxCell id="CctYS4EorTJOujkTrtzZ-118" value="" style="shape=partialRectangle;html=1;whiteSpace=wrap;connectable=0;fillColor=none;top=0;left=0;bottom=0;right=0;overflow=hidden;" vertex="1" parent="CctYS4EorTJOujkTrtzZ-116">
          <mxGeometry x="75" width="76" height="67" as="geometry">
            <mxRectangle width="76" height="67" as="alternateBounds" />
          </mxGeometry>
        </mxCell>
        <mxCell id="CctYS4EorTJOujkTrtzZ-119" value="" style="shape=partialRectangle;html=1;whiteSpace=wrap;connectable=0;fillColor=none;top=0;left=0;bottom=0;right=0;overflow=hidden;" vertex="1" parent="CctYS4EorTJOujkTrtzZ-116">
          <mxGeometry x="151" width="75" height="67" as="geometry">
            <mxRectangle width="75" height="67" as="alternateBounds" />
          </mxGeometry>
        </mxCell>
        <mxCell id="CctYS4EorTJOujkTrtzZ-148" value="" style="shape=tableRow;horizontal=0;startSize=0;swimlaneHead=0;swimlaneBody=0;top=0;left=0;bottom=0;right=0;collapsible=0;dropTarget=0;fillColor=none;points=[[0,0.5],[1,0.5]];portConstraint=eastwest;" vertex="1" parent="CctYS4EorTJOujkTrtzZ-111">
          <mxGeometry y="130" width="226" height="64" as="geometry" />
        </mxCell>
        <mxCell id="CctYS4EorTJOujkTrtzZ-149" value="" style="shape=partialRectangle;html=1;whiteSpace=wrap;connectable=0;fillColor=none;top=0;left=0;bottom=0;right=0;overflow=hidden;" vertex="1" parent="CctYS4EorTJOujkTrtzZ-148">
          <mxGeometry width="75" height="64" as="geometry">
            <mxRectangle width="75" height="64" as="alternateBounds" />
          </mxGeometry>
        </mxCell>
        <mxCell id="CctYS4EorTJOujkTrtzZ-150" value="" style="shape=partialRectangle;html=1;whiteSpace=wrap;connectable=0;fillColor=none;top=0;left=0;bottom=0;right=0;overflow=hidden;" vertex="1" parent="CctYS4EorTJOujkTrtzZ-148">
          <mxGeometry x="75" width="76" height="64" as="geometry">
            <mxRectangle width="76" height="64" as="alternateBounds" />
          </mxGeometry>
        </mxCell>
        <mxCell id="CctYS4EorTJOujkTrtzZ-151" value="" style="shape=partialRectangle;html=1;whiteSpace=wrap;connectable=0;fillColor=none;top=0;left=0;bottom=0;right=0;overflow=hidden;" vertex="1" parent="CctYS4EorTJOujkTrtzZ-148">
          <mxGeometry x="151" width="75" height="64" as="geometry">
            <mxRectangle width="75" height="64" as="alternateBounds" />
          </mxGeometry>
        </mxCell>
        <mxCell id="CctYS4EorTJOujkTrtzZ-120" value="" style="shape=tableRow;horizontal=0;startSize=0;swimlaneHead=0;swimlaneBody=0;top=0;left=0;bottom=0;right=0;collapsible=0;dropTarget=0;fillColor=none;points=[[0,0.5],[1,0.5]];portConstraint=eastwest;" vertex="1" parent="CctYS4EorTJOujkTrtzZ-111">
          <mxGeometry y="194" width="226" height="63" as="geometry" />
        </mxCell>
        <mxCell id="CctYS4EorTJOujkTrtzZ-121" value="" style="shape=partialRectangle;html=1;whiteSpace=wrap;connectable=0;fillColor=none;top=0;left=0;bottom=0;right=0;overflow=hidden;" vertex="1" parent="CctYS4EorTJOujkTrtzZ-120">
          <mxGeometry width="75" height="63" as="geometry">
            <mxRectangle width="75" height="63" as="alternateBounds" />
          </mxGeometry>
        </mxCell>
        <mxCell id="CctYS4EorTJOujkTrtzZ-122" value="" style="shape=partialRectangle;html=1;whiteSpace=wrap;connectable=0;fillColor=none;top=0;left=0;bottom=0;right=0;overflow=hidden;" vertex="1" parent="CctYS4EorTJOujkTrtzZ-120">
          <mxGeometry x="75" width="76" height="63" as="geometry">
            <mxRectangle width="76" height="63" as="alternateBounds" />
          </mxGeometry>
        </mxCell>
        <mxCell id="CctYS4EorTJOujkTrtzZ-123" value="" style="shape=partialRectangle;html=1;whiteSpace=wrap;connectable=0;fillColor=none;top=0;left=0;bottom=0;right=0;overflow=hidden;pointerEvents=1;" vertex="1" parent="CctYS4EorTJOujkTrtzZ-120">
          <mxGeometry x="151" width="75" height="63" as="geometry">
            <mxRectangle width="75" height="63" as="alternateBounds" />
          </mxGeometry>
        </mxCell>
        <mxCell id="CctYS4EorTJOujkTrtzZ-124" value="" style="rounded=0;whiteSpace=wrap;html=1;" vertex="1" parent="1">
          <mxGeometry x="160" y="520" width="480" height="60" as="geometry" />
        </mxCell>
        <mxCell id="CctYS4EorTJOujkTrtzZ-125" value="ID" style="rounded=0;whiteSpace=wrap;html=1;" vertex="1" parent="1">
          <mxGeometry x="160" y="580" width="80" height="40" as="geometry" />
        </mxCell>
        <mxCell id="CctYS4EorTJOujkTrtzZ-126" value="nimi" style="rounded=0;whiteSpace=wrap;html=1;" vertex="1" parent="1">
          <mxGeometry x="240" y="580" width="90" height="40" as="geometry" />
        </mxCell>
        <mxCell id="CctYS4EorTJOujkTrtzZ-127" value="" style="rounded=0;whiteSpace=wrap;html=1;" vertex="1" parent="1">
          <mxGeometry x="332" y="580" width="88" height="40" as="geometry" />
        </mxCell>
        <mxCell id="CctYS4EorTJOujkTrtzZ-128" value="" style="rounded=0;whiteSpace=wrap;html=1;" vertex="1" parent="1">
          <mxGeometry x="423" y="580" width="70" height="40" as="geometry" />
        </mxCell>
        <mxCell id="CctYS4EorTJOujkTrtzZ-129" value="" style="rounded=0;whiteSpace=wrap;html=1;" vertex="1" parent="1">
          <mxGeometry x="493" y="580" width="80" height="40" as="geometry" />
        </mxCell>
        <mxCell id="CctYS4EorTJOujkTrtzZ-130" value="" style="rounded=0;whiteSpace=wrap;html=1;" vertex="1" parent="1">
          <mxGeometry x="573" y="580" width="70" height="40" as="geometry" />
        </mxCell>
        <mxCell id="CctYS4EorTJOujkTrtzZ-172" style="edgeStyle=none;rounded=0;orthogonalLoop=1;jettySize=auto;html=1;" edge="1" parent="1" source="CctYS4EorTJOujkTrtzZ-131" target="CctYS4EorTJOujkTrtzZ-124">
          <mxGeometry relative="1" as="geometry" />
        </mxCell>
        <mxCell id="CctYS4EorTJOujkTrtzZ-131" value="" style="shape=table;html=1;whiteSpace=wrap;startSize=0;container=1;collapsible=0;childLayout=tableLayout;" vertex="1" parent="1">
          <mxGeometry x="310" y="250" width="180" height="170" as="geometry" />
        </mxCell>
        <mxCell id="CctYS4EorTJOujkTrtzZ-132" value="" style="shape=tableRow;horizontal=0;startSize=0;swimlaneHead=0;swimlaneBody=0;top=0;left=0;bottom=0;right=0;collapsible=0;dropTarget=0;fillColor=none;points=[[0,0.5],[1,0.5]];portConstraint=eastwest;" vertex="1" parent="CctYS4EorTJOujkTrtzZ-131">
          <mxGeometry width="180" height="50" as="geometry" />
        </mxCell>
        <mxCell id="CctYS4EorTJOujkTrtzZ-133" value="id" style="shape=partialRectangle;html=1;whiteSpace=wrap;connectable=0;fillColor=none;top=0;left=0;bottom=0;right=0;overflow=hidden;" vertex="1" parent="CctYS4EorTJOujkTrtzZ-132">
          <mxGeometry width="60" height="50" as="geometry">
            <mxRectangle width="60" height="50" as="alternateBounds" />
          </mxGeometry>
        </mxCell>
        <mxCell id="CctYS4EorTJOujkTrtzZ-134" value="nimi" style="shape=partialRectangle;html=1;whiteSpace=wrap;connectable=0;fillColor=none;top=0;left=0;bottom=0;right=0;overflow=hidden;" vertex="1" parent="CctYS4EorTJOujkTrtzZ-132">
          <mxGeometry x="60" width="60" height="50" as="geometry">
            <mxRectangle width="60" height="50" as="alternateBounds" />
          </mxGeometry>
        </mxCell>
        <mxCell id="CctYS4EorTJOujkTrtzZ-135" value="syntymä vuosi" style="shape=partialRectangle;html=1;whiteSpace=wrap;connectable=0;fillColor=none;top=0;left=0;bottom=0;right=0;overflow=hidden;" vertex="1" parent="CctYS4EorTJOujkTrtzZ-132">
          <mxGeometry x="120" width="60" height="50" as="geometry">
            <mxRectangle width="60" height="50" as="alternateBounds" />
          </mxGeometry>
        </mxCell>
        <mxCell id="CctYS4EorTJOujkTrtzZ-136" value="" style="shape=tableRow;horizontal=0;startSize=0;swimlaneHead=0;swimlaneBody=0;top=0;left=0;bottom=0;right=0;collapsible=0;dropTarget=0;fillColor=none;points=[[0,0.5],[1,0.5]];portConstraint=eastwest;" vertex="1" parent="CctYS4EorTJOujkTrtzZ-131">
          <mxGeometry y="50" width="180" height="40" as="geometry" />
        </mxCell>
        <mxCell id="CctYS4EorTJOujkTrtzZ-137" value="4" style="shape=partialRectangle;html=1;whiteSpace=wrap;connectable=0;fillColor=none;top=0;left=0;bottom=0;right=0;overflow=hidden;" vertex="1" parent="CctYS4EorTJOujkTrtzZ-136">
          <mxGeometry width="60" height="40" as="geometry">
            <mxRectangle width="60" height="40" as="alternateBounds" />
          </mxGeometry>
        </mxCell>
        <mxCell id="CctYS4EorTJOujkTrtzZ-138" value="keijo" style="shape=partialRectangle;html=1;whiteSpace=wrap;connectable=0;fillColor=none;top=0;left=0;bottom=0;right=0;overflow=hidden;" vertex="1" parent="CctYS4EorTJOujkTrtzZ-136">
          <mxGeometry x="60" width="60" height="40" as="geometry">
            <mxRectangle width="60" height="40" as="alternateBounds" />
          </mxGeometry>
        </mxCell>
        <mxCell id="CctYS4EorTJOujkTrtzZ-139" value="" style="shape=partialRectangle;html=1;whiteSpace=wrap;connectable=0;fillColor=none;top=0;left=0;bottom=0;right=0;overflow=hidden;" vertex="1" parent="CctYS4EorTJOujkTrtzZ-136">
          <mxGeometry x="120" width="60" height="40" as="geometry">
            <mxRectangle width="60" height="40" as="alternateBounds" />
          </mxGeometry>
        </mxCell>
        <mxCell id="CctYS4EorTJOujkTrtzZ-140" value="" style="shape=tableRow;horizontal=0;startSize=0;swimlaneHead=0;swimlaneBody=0;top=0;left=0;bottom=0;right=0;collapsible=0;dropTarget=0;fillColor=none;points=[[0,0.5],[1,0.5]];portConstraint=eastwest;" vertex="1" parent="CctYS4EorTJOujkTrtzZ-131">
          <mxGeometry y="90" width="180" height="40" as="geometry" />
        </mxCell>
        <mxCell id="CctYS4EorTJOujkTrtzZ-141" value="5" style="shape=partialRectangle;html=1;whiteSpace=wrap;connectable=0;fillColor=none;top=0;left=0;bottom=0;right=0;overflow=hidden;" vertex="1" parent="CctYS4EorTJOujkTrtzZ-140">
          <mxGeometry width="60" height="40" as="geometry">
            <mxRectangle width="60" height="40" as="alternateBounds" />
          </mxGeometry>
        </mxCell>
        <mxCell id="CctYS4EorTJOujkTrtzZ-142" value="jarno" style="shape=partialRectangle;html=1;whiteSpace=wrap;connectable=0;fillColor=none;top=0;left=0;bottom=0;right=0;overflow=hidden;" vertex="1" parent="CctYS4EorTJOujkTrtzZ-140">
          <mxGeometry x="60" width="60" height="40" as="geometry">
            <mxRectangle width="60" height="40" as="alternateBounds" />
          </mxGeometry>
        </mxCell>
        <mxCell id="CctYS4EorTJOujkTrtzZ-143" value="" style="shape=partialRectangle;html=1;whiteSpace=wrap;connectable=0;fillColor=none;top=0;left=0;bottom=0;right=0;overflow=hidden;" vertex="1" parent="CctYS4EorTJOujkTrtzZ-140">
          <mxGeometry x="120" width="60" height="40" as="geometry">
            <mxRectangle width="60" height="40" as="alternateBounds" />
          </mxGeometry>
        </mxCell>
        <mxCell id="CctYS4EorTJOujkTrtzZ-144" value="" style="shape=tableRow;horizontal=0;startSize=0;swimlaneHead=0;swimlaneBody=0;top=0;left=0;bottom=0;right=0;collapsible=0;dropTarget=0;fillColor=none;points=[[0,0.5],[1,0.5]];portConstraint=eastwest;" vertex="1" parent="CctYS4EorTJOujkTrtzZ-131">
          <mxGeometry y="130" width="180" height="40" as="geometry" />
        </mxCell>
        <mxCell id="CctYS4EorTJOujkTrtzZ-145" value="6" style="shape=partialRectangle;html=1;whiteSpace=wrap;connectable=0;fillColor=none;top=0;left=0;bottom=0;right=0;overflow=hidden;" vertex="1" parent="CctYS4EorTJOujkTrtzZ-144">
          <mxGeometry width="60" height="40" as="geometry">
            <mxRectangle width="60" height="40" as="alternateBounds" />
          </mxGeometry>
        </mxCell>
        <mxCell id="CctYS4EorTJOujkTrtzZ-146" value="nooa" style="shape=partialRectangle;html=1;whiteSpace=wrap;connectable=0;fillColor=none;top=0;left=0;bottom=0;right=0;overflow=hidden;" vertex="1" parent="CctYS4EorTJOujkTrtzZ-144">
          <mxGeometry x="60" width="60" height="40" as="geometry">
            <mxRectangle width="60" height="40" as="alternateBounds" />
          </mxGeometry>
        </mxCell>
        <mxCell id="CctYS4EorTJOujkTrtzZ-147" value="" style="shape=partialRectangle;html=1;whiteSpace=wrap;connectable=0;fillColor=none;top=0;left=0;bottom=0;right=0;overflow=hidden;pointerEvents=1;" vertex="1" parent="CctYS4EorTJOujkTrtzZ-144">
          <mxGeometry x="120" width="60" height="40" as="geometry">
            <mxRectangle width="60" height="40" as="alternateBounds" />
          </mxGeometry>
        </mxCell>
        <mxCell id="CctYS4EorTJOujkTrtzZ-153" value="" style="shape=table;html=1;whiteSpace=wrap;startSize=0;container=1;collapsible=0;childLayout=tableLayout;" vertex="1" parent="1">
          <mxGeometry x="160" y="620" width="260" height="257" as="geometry" />
        </mxCell>
        <mxCell id="CctYS4EorTJOujkTrtzZ-154" value="" style="shape=tableRow;horizontal=0;startSize=0;swimlaneHead=0;swimlaneBody=0;top=0;left=0;bottom=0;right=0;collapsible=0;dropTarget=0;fillColor=none;points=[[0,0.5],[1,0.5]];portConstraint=eastwest;" vertex="1" parent="CctYS4EorTJOujkTrtzZ-153">
          <mxGeometry width="260" height="63" as="geometry" />
        </mxCell>
        <mxCell id="CctYS4EorTJOujkTrtzZ-155" value="" style="shape=partialRectangle;html=1;whiteSpace=wrap;connectable=0;fillColor=none;top=0;left=0;bottom=0;right=0;overflow=hidden;" vertex="1" parent="CctYS4EorTJOujkTrtzZ-154">
          <mxGeometry width="86" height="63" as="geometry">
            <mxRectangle width="86" height="63" as="alternateBounds" />
          </mxGeometry>
        </mxCell>
        <mxCell id="CctYS4EorTJOujkTrtzZ-156" value="" style="shape=partialRectangle;html=1;whiteSpace=wrap;connectable=0;fillColor=none;top=0;left=0;bottom=0;right=0;overflow=hidden;" vertex="1" parent="CctYS4EorTJOujkTrtzZ-154">
          <mxGeometry x="86" width="88" height="63" as="geometry">
            <mxRectangle width="88" height="63" as="alternateBounds" />
          </mxGeometry>
        </mxCell>
        <mxCell id="CctYS4EorTJOujkTrtzZ-157" value="" style="shape=partialRectangle;html=1;whiteSpace=wrap;connectable=0;fillColor=none;top=0;left=0;bottom=0;right=0;overflow=hidden;" vertex="1" parent="CctYS4EorTJOujkTrtzZ-154">
          <mxGeometry x="174" width="86" height="63" as="geometry">
            <mxRectangle width="86" height="63" as="alternateBounds" />
          </mxGeometry>
        </mxCell>
        <mxCell id="CctYS4EorTJOujkTrtzZ-158" value="" style="shape=tableRow;horizontal=0;startSize=0;swimlaneHead=0;swimlaneBody=0;top=0;left=0;bottom=0;right=0;collapsible=0;dropTarget=0;fillColor=none;points=[[0,0.5],[1,0.5]];portConstraint=eastwest;" vertex="1" parent="CctYS4EorTJOujkTrtzZ-153">
          <mxGeometry y="63" width="260" height="67" as="geometry" />
        </mxCell>
        <mxCell id="CctYS4EorTJOujkTrtzZ-159" value="" style="shape=partialRectangle;html=1;whiteSpace=wrap;connectable=0;fillColor=none;top=0;left=0;bottom=0;right=0;overflow=hidden;" vertex="1" parent="CctYS4EorTJOujkTrtzZ-158">
          <mxGeometry width="86" height="67" as="geometry">
            <mxRectangle width="86" height="67" as="alternateBounds" />
          </mxGeometry>
        </mxCell>
        <mxCell id="CctYS4EorTJOujkTrtzZ-160" value="" style="shape=partialRectangle;html=1;whiteSpace=wrap;connectable=0;fillColor=none;top=0;left=0;bottom=0;right=0;overflow=hidden;" vertex="1" parent="CctYS4EorTJOujkTrtzZ-158">
          <mxGeometry x="86" width="88" height="67" as="geometry">
            <mxRectangle width="88" height="67" as="alternateBounds" />
          </mxGeometry>
        </mxCell>
        <mxCell id="CctYS4EorTJOujkTrtzZ-161" value="" style="shape=partialRectangle;html=1;whiteSpace=wrap;connectable=0;fillColor=none;top=0;left=0;bottom=0;right=0;overflow=hidden;" vertex="1" parent="CctYS4EorTJOujkTrtzZ-158">
          <mxGeometry x="174" width="86" height="67" as="geometry">
            <mxRectangle width="86" height="67" as="alternateBounds" />
          </mxGeometry>
        </mxCell>
        <mxCell id="CctYS4EorTJOujkTrtzZ-162" value="" style="shape=tableRow;horizontal=0;startSize=0;swimlaneHead=0;swimlaneBody=0;top=0;left=0;bottom=0;right=0;collapsible=0;dropTarget=0;fillColor=none;points=[[0,0.5],[1,0.5]];portConstraint=eastwest;" vertex="1" parent="CctYS4EorTJOujkTrtzZ-153">
          <mxGeometry y="130" width="260" height="64" as="geometry" />
        </mxCell>
        <mxCell id="CctYS4EorTJOujkTrtzZ-163" value="" style="shape=partialRectangle;html=1;whiteSpace=wrap;connectable=0;fillColor=none;top=0;left=0;bottom=0;right=0;overflow=hidden;" vertex="1" parent="CctYS4EorTJOujkTrtzZ-162">
          <mxGeometry width="86" height="64" as="geometry">
            <mxRectangle width="86" height="64" as="alternateBounds" />
          </mxGeometry>
        </mxCell>
        <mxCell id="CctYS4EorTJOujkTrtzZ-164" value="" style="shape=partialRectangle;html=1;whiteSpace=wrap;connectable=0;fillColor=none;top=0;left=0;bottom=0;right=0;overflow=hidden;" vertex="1" parent="CctYS4EorTJOujkTrtzZ-162">
          <mxGeometry x="86" width="88" height="64" as="geometry">
            <mxRectangle width="88" height="64" as="alternateBounds" />
          </mxGeometry>
        </mxCell>
        <mxCell id="CctYS4EorTJOujkTrtzZ-165" value="" style="shape=partialRectangle;html=1;whiteSpace=wrap;connectable=0;fillColor=none;top=0;left=0;bottom=0;right=0;overflow=hidden;" vertex="1" parent="CctYS4EorTJOujkTrtzZ-162">
          <mxGeometry x="174" width="86" height="64" as="geometry">
            <mxRectangle width="86" height="64" as="alternateBounds" />
          </mxGeometry>
        </mxCell>
        <mxCell id="CctYS4EorTJOujkTrtzZ-166" value="" style="shape=tableRow;horizontal=0;startSize=0;swimlaneHead=0;swimlaneBody=0;top=0;left=0;bottom=0;right=0;collapsible=0;dropTarget=0;fillColor=none;points=[[0,0.5],[1,0.5]];portConstraint=eastwest;" vertex="1" parent="CctYS4EorTJOujkTrtzZ-153">
          <mxGeometry y="194" width="260" height="63" as="geometry" />
        </mxCell>
        <mxCell id="CctYS4EorTJOujkTrtzZ-167" value="" style="shape=partialRectangle;html=1;whiteSpace=wrap;connectable=0;fillColor=none;top=0;left=0;bottom=0;right=0;overflow=hidden;" vertex="1" parent="CctYS4EorTJOujkTrtzZ-166">
          <mxGeometry width="86" height="63" as="geometry">
            <mxRectangle width="86" height="63" as="alternateBounds" />
          </mxGeometry>
        </mxCell>
        <mxCell id="CctYS4EorTJOujkTrtzZ-168" value="" style="shape=partialRectangle;html=1;whiteSpace=wrap;connectable=0;fillColor=none;top=0;left=0;bottom=0;right=0;overflow=hidden;" vertex="1" parent="CctYS4EorTJOujkTrtzZ-166">
          <mxGeometry x="86" width="88" height="63" as="geometry">
            <mxRectangle width="88" height="63" as="alternateBounds" />
          </mxGeometry>
        </mxCell>
        <mxCell id="CctYS4EorTJOujkTrtzZ-169" value="" style="shape=partialRectangle;html=1;whiteSpace=wrap;connectable=0;fillColor=none;top=0;left=0;bottom=0;right=0;overflow=hidden;pointerEvents=1;" vertex="1" parent="CctYS4EorTJOujkTrtzZ-166">
          <mxGeometry x="174" width="86" height="63" as="geometry">
            <mxRectangle width="86" height="63" as="alternateBounds" />
          </mxGeometry>
        </mxCell>
        <mxCell id="CctYS4EorTJOujkTrtzZ-170" style="edgeStyle=none;rounded=0;orthogonalLoop=1;jettySize=auto;html=1;entryX=1.015;entryY=0.353;entryDx=0;entryDy=0;entryPerimeter=0;" edge="1" parent="1" source="CctYS4EorTJOujkTrtzZ-76" target="CctYS4EorTJOujkTrtzZ-116">
          <mxGeometry relative="1" as="geometry">
            <mxPoint x="700" y="710" as="targetPoint" />
          </mxGeometry>
        </mxCell>
      </root>
    </mxGraphModel>
  </diagram>
</mxfile>
